<?xml version="1.0" encoding="UTF-8"?>
<svg version="1.1" xmlns="http://www.w3.org/2000/svg" width="1702" height="608">
<path d="M0 0 C561.66 0 1123.32 0 1702 0 C1702 200.64 1702 401.28 1702 608 C1140.34 608 578.68 608 0 608 C0 407.36 0 206.72 0 0 Z " fill="#FEFEFE" transform="translate(0,0)"/>
<path d="M0 0 C13.86 0 27.72 0 42 0 C42 85.47 42 170.94 42 259 C-3.21 259 -48.42 259 -95 259 C-95 253.72 -95 248.44 -95 243 C-100.61 243 -106.22 243 -112 243 C-112 184.92 -112 126.84 -112 67 C-75.04 67 -38.08 67 0 67 C0 44.89 0 22.78 0 0 Z " fill="#6A6868" transform="translate(1096,149)"/>
<path d="M0 0 C44.55 0 89.1 0 135 0 C135 5.28 135 10.56 135 16 C140.94 16 146.88 16 153 16 C153 68.8 153 121.6 153 176 C147.06 176 141.12 176 135 176 C135 181.28 135 186.56 135 192 C104.64 192 74.28 192 43 192 C43 213.78 43 235.56 43 258 C28.81 258 14.62 258 0 258 C0 172.86 0 87.72 0 0 Z " fill="#23211F" transform="translate(438,216)"/>
<path d="M0 0 C45.21 0 90.42 0 137 0 C137 5.28 137 10.56 137 16 C142.28 16 147.56 16 153 16 C153 74.08 153 132.16 153 192 C102.51 192 52.02 192 0 192 C0 128.64 0 65.28 0 0 Z " fill="#6A6869" transform="translate(799,216)"/>
<path d="M0 0 C49.5 0 99 0 150 0 C150 58.08 150 116.16 150 176 C144.39 176 138.78 176 133 176 C133 181.28 133 186.56 133 192 C94.39 192 55.78 192 16 192 C16 186.72 16 181.44 16 176 C10.72 176 5.44 176 0 176 C0 117.92 0 59.84 0 0 Z " fill="#23211F" transform="translate(256,216)"/>
<path d="M0 0 C50.82 0 101.64 0 154 0 C154 37.62 154 75.24 154 114 C117.04 114 80.08 114 42 114 C42 126.21 42 138.42 42 151 C78.96 151 115.92 151 154 151 C154 164.53 154 178.06 154 192 C103.18 192 52.36 192 0 192 C0 128.64 0 65.28 0 0 Z " fill="#6A6868" transform="translate(1170,216)"/>
<path d="M0 0 C13.86 0 27.72 0 42 0 C42 22.11 42 44.22 42 67 C73.02 67 104.04 67 136 67 C136 72.28 136 77.56 136 83 C141.61 83 147.22 83 153 83 C153 141.08 153 199.16 153 259 C138.81 259 124.62 259 110 259 C110 209.17 110 159.34 110 108 C87.56 108 65.12 108 42 108 C42 157.83 42 207.66 42 259 C28.14 259 14.28 259 0 259 C0 173.53 0 88.06 0 0 Z " fill="#242220" transform="translate(71,149)"/>
<path d="M0 0 C13.86 0 27.72 0 42 0 C42 13.53 42 27.06 42 41 C47.94 41 53.88 41 60 41 C60 48.26 60 55.52 60 63 C67.59 63 75.18 63 83 63 C83 55.74 83 48.48 83 41 C88.94 41 94.88 41 101 41 C101 27.47 101 13.94 101 0 C114.86 0 128.72 0 143 0 C143 20.79 143 41.58 143 63 C137.06 63 131.12 63 125 63 C125 70.92 125 78.84 125 87 C119.06 87 113.12 87 107 87 C107 92.28 107 97.56 107 103 C112.94 103 118.88 103 125 103 C125 110.92 125 118.84 125 127 C130.94 127 136.88 127 143 127 C143 148.45 143 169.9 143 192 C129.14 192 115.28 192 101 192 C101 178.14 101 164.28 101 150 C95.06 150 89.12 150 83 150 C83 142.41 83 134.82 83 127 C75.41 127 67.82 127 60 127 C60 134.92 60 142.84 60 151 C54.06 151 48.12 151 42 151 C42 164.53 42 178.06 42 192 C28.14 192 14.28 192 0 192 C0 170.55 0 149.1 0 127 C5.94 127 11.88 127 18 127 C18 119.08 18 111.16 18 103 C23.61 103 29.22 103 35 103 C35 97.72 35 92.44 35 87 C29.39 87 23.78 87 18 87 C18 79.08 18 71.16 18 63 C12.06 63 6.12 63 0 63 C0 42.21 0 21.42 0 0 Z " fill="#BDB9B8" transform="translate(1512,216)"/>
<path d="M0 0 C42.57 0 85.14 0 129 0 C129 13.53 129 27.06 129 41 C94.68 41 60.36 41 25 41 C25 77.3 25 113.6 25 151 C59.32 151 93.64 151 129 151 C129 164.53 129 178.06 129 192 C86.43 192 43.86 192 0 192 C0 186.72 0 181.44 0 176 C-5.61 176 -11.22 176 -17 176 C-17 123.2 -17 70.4 -17 16 C-11.39 16 -5.78 16 0 16 C0 10.72 0 5.44 0 0 Z " fill="#6B6969" transform="translate(639,216)"/>
<path d="M0 0 C41.25 0 82.5 0 125 0 C125 13.53 125 27.06 125 41 C97.61 41 70.22 41 42 41 C42 90.83 42 140.66 42 192 C28.14 192 14.28 192 0 192 C0 128.64 0 65.28 0 0 Z " fill="#BDB9B8" transform="translate(1355,216)"/>
<path d="M0 0 C23.1 0 46.2 0 70 0 C70 36.96 70 73.92 70 112 C46.9 112 23.8 112 0 112 C0 75.04 0 38.08 0 0 Z " fill="#C8C8C7" transform="translate(841,256)"/>
<path d="M0 0 C22.77 0 45.54 0 69 0 C69 36.3 69 72.6 69 110 C46.23 110 23.46 110 0 110 C0 73.7 0 37.4 0 0 Z " fill="#CBCBCA" transform="translate(1027,257)"/>
<path d="M0 0 C22.11 0 44.22 0 67 0 C67 36.3 67 72.6 67 110 C44.89 110 22.78 110 0 110 C0 73.7 0 37.4 0 0 Z " fill="#CBCBCB" transform="translate(481,257)"/>
<path d="M0 0 C22.11 0 44.22 0 67 0 C67 36.3 67 72.6 67 110 C44.89 110 22.78 110 0 110 C0 73.7 0 37.4 0 0 Z " fill="#CBCACA" transform="translate(298,257)"/>
<path d="M0 0 C36.96 0.33 73.92 0.66 112 1 C112 12.88 112 24.76 112 37 C75.04 37 38.08 37 0 37 C0 24.79 0 12.58 0 0 Z " fill="#E5E3E1" transform="translate(1212,330)"/>
<path d="M0 0 C23.1 0 46.2 0 70 0 C70 11.88 70 23.76 70 36 C46.9 36 23.8 36 0 36 C0 24.12 0 12.24 0 0 Z " fill="#FDFDFD" transform="translate(1212,257)"/>
<path d="M0 0 C22.77 0 45.54 0 69 0 C69 11.88 69 23.76 69 36 C46.23 36 23.46 36 0 36 C0 24.12 0 12.24 0 0 Z " fill="#FEFEFE" transform="translate(1027,257)"/>
<path d="M0 0 C22.77 0 45.54 0 69 0 C69 11.88 69 23.76 69 36 C46.23 36 23.46 36 0 36 C0 24.12 0 12.24 0 0 Z " fill="#FEFEFE" transform="translate(841,257)"/>
<path d="M0 0 C22.11 0 44.22 0 67 0 C67 11.88 67 23.76 67 36 C44.89 36 22.78 36 0 36 C0 24.12 0 12.24 0 0 Z " fill="#FEFEFE" transform="translate(481,257)"/>
<path d="M0 0 C22.11 0 44.22 0 67 0 C67 11.88 67 23.76 67 36 C44.89 36 22.78 36 0 36 C0 24.12 0 12.24 0 0 Z " fill="#FEFEFD" transform="translate(298,257)"/>
<path d="M0 0 C36.63 0 73.26 0 111 0 C111 1.65 111 3.3 111 5 C74.7 5 38.4 5 1 5 C1 10.61 1 16.22 1 22 C0.67 22 0.34 22 0 22 C0 14.74 0 7.48 0 0 Z " fill="#F0EEEF" transform="translate(1213,331)"/>
</svg>
