<?xml version="1.0" encoding="UTF-8"?>
<svg version="1.1" xmlns="http://www.w3.org/2000/svg" width="2407" height="432">
<path d="M0 0 C794.31 0 1588.62 0 2407 0 C2407 142.56 2407 285.12 2407 432 C1612.69 432 818.38 432 0 432 C0 289.44 0 146.88 0 0 Z " fill="#222429" transform="translate(0,0)"/>
<path d="M0 0 C21.45 0 42.9 0 65 0 C65 113.19 65 226.38 65 343 C54.44 343 43.88 343 33 343 C33 352.57 33 362.14 33 372 C-24.75 372 -82.5 372 -142 372 C-142 362.43 -142 352.86 -142 343 C-152.23 343 -162.46 343 -173 343 C-173 280.96 -173 218.92 -173 155 C-162.44 155 -151.88 155 -141 155 C-141 144.77 -141 134.54 -141 124 C-94.47 124 -47.94 124 0 124 C0 83.08 0 42.16 0 0 Z " fill="#767D88" transform="translate(1560,0)"/>
<path d="M0 0 C69.3 0 138.6 0 210 0 C210 9.9 210 19.8 210 30 C220.56 30 231.12 30 242 30 C242 92.7 242 155.4 242 220 C231.44 220 220.88 220 210 220 C210 229.24 210 238.48 210 248 C161.82 248 113.64 248 64 248 C64 267.8 64 287.6 64 308 C42.88 308 21.76 308 0 308 C0 206.36 0 104.72 0 0 Z " fill="#555155" transform="translate(585,124)"/>
<path d="M0 0 C59.73 0 119.46 0 181 0 C181 9.9 181 19.8 181 30 C191.56 30 202.12 30 213 30 C213 92.7 213 155.4 213 220 C202.44 220 191.88 220 181 220 C181 229.24 181 238.48 181 248 C121.27 248 61.54 248 0 248 C0 238.43 0 228.86 0 219 C-10.56 219 -21.12 219 -32 219 C-32 156.96 -32 94.92 -32 31 C-21.44 31 -10.88 31 0 31 C0 20.77 0 10.54 0 0 Z " fill="#565155" transform="translate(326,124)"/>
<path d="M0 0 C56.43 0 112.86 0 171 0 C171 10.23 171 20.46 171 31 C181.89 31 192.78 31 204 31 C204 93.37 204 155.74 204 220 C193.44 220 182.88 220 172 220 C172 229.24 172 238.48 172 248 C115.24 248 58.48 248 0 248 C0 238.76 0 229.52 0 220 C-10.56 220 -21.12 220 -32 220 C-32 157.3 -32 94.6 -32 30 C-21.44 30 -10.88 30 0 30 C0 20.1 0 10.2 0 0 Z " fill="#757C88" transform="translate(1137,124)"/>
<path d="M0 0 C58.08 0 116.16 0 176 0 C176 10.23 176 20.46 176 31 C186.56 31 197.12 31 208 31 C208 71.59 208 112.18 208 154 C149.92 154 91.84 154 32 154 C32 164.23 32 174.46 32 185 C90.08 185 148.16 185 208 185 C208 205.79 208 226.58 208 248 C139.36 248 70.72 248 0 248 C0 238.43 0 228.86 0 219 C-10.56 219 -21.12 219 -32 219 C-32 156.96 -32 94.92 -32 31 C-21.44 31 -10.88 31 0 31 C0 20.77 0 10.54 0 0 Z " fill="#767D88" transform="translate(1703,124)"/>
<path d="M0 0 C21.12 0 42.24 0 64 0 C64 40.92 64 81.84 64 124 C113.83 124 163.66 124 215 124 C215 134.23 215 144.46 215 155 C225.56 155 236.12 155 247 155 C247 226.61 247 298.22 247 372 C225.55 372 204.1 372 182 372 C182 310.62 182 249.24 182 186 C143.39 186 104.78 186 65 186 C65 247.38 65 308.76 65 372 C43.55 372 22.1 372 0 372 C0 249.24 0 126.48 0 0 Z " fill="#565155" transform="translate(0,0)"/>
<path d="M0 0 C21.12 0 42.24 0 64 0 C64 15.18 64 30.36 64 46 C72.91 46 81.82 46 91 46 C91 51.28 91 56.56 91 62 C93.64 62 96.28 62 99 62 C99 67.94 99 73.88 99 80 C106.92 80 114.84 80 123 80 C123 74.06 123 68.12 123 62 C125.64 62 128.28 62 131 62 C131 56.72 131 51.44 131 46 C139.91 46 148.82 46 158 46 C158 30.82 158 15.64 158 0 C176.48 0 194.96 0 214 0 C214 81.84 214 163.68 214 248 C201.79 248.33 189.58 248.66 177 249 C178.65 249.66 180.3 250.32 182 251 C182 251.66 182 252.32 182 253 C181.21496094 253.3403125 180.42992188 253.680625 179.62109375 254.03125 C168.73574938 259.05320028 163.17844446 264.78827324 159 276 C158.34 276 157.68 276 157 276 C156.6596875 275.21496094 156.319375 274.42992187 155.96875 273.62109375 C150.94679972 262.73574938 145.21172676 257.17844446 134 253 C134 252.34 134 251.68 134 251 C134.78503906 250.6596875 135.57007812 250.319375 136.37890625 249.96875 C145.92422631 245.56501952 152.23881741 240.45191913 156.2890625 230.5859375 C157.68847544 225.49576517 157.83758013 220.2542827 158 215 C154.37 215 150.74 215 147 215 C147 204.77 147 194.54 147 184 C139.41 184 131.82 184 124 184 C124 175.42 124 166.84 124 158 C115.75 158 107.5 158 99 158 C99 166.58 99 175.16 99 184 C90.42 184 81.84 184 73 184 C73 193.9 73 203.8 73 214 C70.03 214 67.06 214 64 214 C64 225.22 64 236.44 64 248 C42.88 248 21.76 248 0 248 C0 226.88 0 205.76 0 184 C5.61 184 11.22 184 17 184 C17 175.42 17 166.84 17 158 C19.31 158 21.62 158 24 158 C24 151.4 24 144.8 24 138 C30.93 138 37.86 138 45 138 C45 134.7 45 131.4 45 128 C52.92 128 60.84 128 69 128 C69 122.06 69 116.12 69 110 C61.08 110 53.16 110 45 110 C45 104.06 45 98.12 45 92 C38.07 92 31.14 92 24 92 C24 82.1 24 72.2 24 62 C16.08 62 8.16 62 0 62 C0 41.54 0 21.08 0 0 Z " fill="#767D88" transform="translate(2193,124)"/>
<path d="M0 0 C40.26 0 80.52 0 122 0 C122 10.23 122 20.46 122 31 C132.56 31 143.12 31 154 31 C154 51.13 154 71.26 154 92 C133.21 92 112.42 92 91 92 C91 82.1 91 72.2 91 62 C71.53 62 52.06 62 32 62 C32 102.26 32 142.52 32 184 C51.47 184 70.94 184 91 184 C91 174.1 91 164.2 91 154 C112.12 154 133.24 154 155 154 C155 185.02 155 216.04 155 248 C103.85 248 52.7 248 0 248 C0 238.43 0 228.86 0 219 C-10.56 219 -21.12 219 -32 219 C-32 156.96 -32 94.92 -32 31 C-21.44 31 -10.88 31 0 31 C0 20.77 0 10.54 0 0 Z " fill="#767D88" transform="translate(905,124)"/>
<path d="M0 0 C22.44 0 44.88 0 68 0 C68 10.23 68 20.46 68 31 C73.28 31 78.56 31 84 31 C84 20.77 84 10.54 84 0 C118.98 0 153.96 0 190 0 C190 30.69 190 61.38 190 93 C168.88 93 147.76 93 126 93 C126 82.77 126 72.54 126 62 C106.86 62 87.72 62 68 62 C68 123.38 68 184.76 68 248 C45.56 248 23.12 248 0 248 C0 166.16 0 84.32 0 0 Z " fill="#767C88" transform="translate(1957,124)"/>
<path d="M0 0 C38.28 0 76.56 0 116 0 C116 40.59 116 81.18 116 123 C77.72 123 39.44 123 0 123 C0 82.41 0 41.82 0 0 Z " fill="#1A181D" transform="translate(358,186)"/>
<path d="M0 0 C37.29 0 74.58 0 113 0 C113 40.59 113 81.18 113 123 C75.71 123 38.42 123 0 123 C0 82.41 0 41.82 0 0 Z " fill="#1A181D" transform="translate(649,186)"/>
<path d="M0 0 C36.96 0 73.92 0 112 0 C112 40.26 112 80.52 112 122 C75.04 122 38.08 122 0 122 C0 81.74 0 41.48 0 0 Z " fill="#222429" transform="translate(1448,186)"/>
<path d="M0 0 C34.98 0 69.96 0 106 0 C106 40.59 106 81.18 106 123 C71.02 123 36.04 123 0 123 C0 82.41 0 41.82 0 0 Z " fill="#1F1F24" transform="translate(1170,186)"/>
<path d="M0 0 C4.62 0 9.24 0 14 0 C14 40.26 14 80.52 14 122 C9.71 122 5.42 122 1 122 C1 113.09 1 104.18 1 95 C-5.6 95 -12.2 95 -19 95 C-19 88.4 -19 81.8 -19 75 C-29.23 75 -39.46 75 -50 75 C-50 66.09 -50 57.18 -50 48 C-41.09 48 -32.18 48 -23 48 C-23 42.06 -23 36.12 -23 30 C-15.41 30 -7.82 30 0 30 C0 20.1 0 10.2 0 0 Z " fill="#222429" transform="translate(2393,186)"/>
<path d="M0 0 C36.96 0 73.92 0 112 0 C112 10.23 112 20.46 112 31 C75.04 31 38.08 31 0 31 C0 20.77 0 10.54 0 0 Z " fill="#1B1A1F" transform="translate(1735,186)"/>
<path d="M0 0 C1.52197998 0.00018127 1.52197998 0.00018127 3.07470703 0.00036621 C4.663396 0.00804016 4.663396 0.00804016 6.28417969 0.01586914 C7.26306152 0.01687622 8.24194336 0.0178833 9.25048828 0.0189209 C12.90235569 0.02414754 16.55420638 0.03810881 20.20605469 0.05102539 C32.45730469 0.08196289 32.45730469 0.08196289 44.95605469 0.11352539 C44.95605469 20.57352539 44.95605469 41.03352539 44.95605469 62.11352539 C36.23167969 62.13415039 27.50730469 62.15477539 18.51855469 62.17602539 C15.76068604 62.18512939 13.00281738 62.1942334 10.16137695 62.20361328 C7.99007211 62.20653223 5.81876673 62.20908084 3.64746094 62.21118164 C2.50821167 62.21629761 1.3689624 62.22141357 0.19519043 62.22668457 C-0.88073364 62.22680542 -1.95665771 62.22692627 -3.06518555 62.22705078 C-4.00450424 62.22927139 -4.94382294 62.231492 -5.91160583 62.23377991 C-8.04394531 62.11352539 -8.04394531 62.11352539 -9.04394531 61.11352539 C-9.13780912 59.24171599 -9.16138335 57.36634479 -9.1574707 55.4921875 C-9.15739517 54.29101791 -9.15731964 53.08984833 -9.15724182 51.85227966 C-9.15208054 50.54501419 -9.14691925 49.23774872 -9.14160156 47.89086914 C-9.1397373 46.54708407 -9.13831343 45.20329832 -9.13731384 43.85951233 C-9.13348933 40.31670263 -9.12365963 36.77393369 -9.11260986 33.23114014 C-9.10239431 29.61837312 -9.09781591 26.00559955 -9.09277344 22.39282227 C-9.08203729 15.29970659 -9.06496167 8.20661865 -9.04394531 1.11352539 C-5.9579345 0.21065788 -3.21033526 -0.00810691 0 0 Z " fill="#222428" transform="translate(398.0439453125,215.886474609375)"/>
<path d="M0 0 C0.73061142 0.00141495 1.46122284 0.0028299 2.213974 0.00428772 C4.46431255 0.00972189 6.71453722 0.02223606 8.96484375 0.03515625 C10.52538915 0.04019289 12.08593617 0.04475188 13.64648438 0.04882812 C17.39847219 0.05963579 21.15039681 0.07677462 24.90234375 0.09765625 C26.22873353 2.7504358 26.02946731 4.75432546 26.03173828 7.72485352 C26.03489044 8.90269913 26.0380426 10.08054474 26.04129028 11.29408264 C26.03926605 12.57117599 26.03724182 13.84826935 26.03515625 15.1640625 C26.03611298 16.46842758 26.0370697 17.77279266 26.03805542 19.11668396 C26.03953052 21.87817569 26.03738353 24.63963508 26.03271484 27.40112305 C26.02701206 30.94784646 26.0303012 34.49449429 26.03628731 38.04121494 C26.04076023 41.4155036 26.03763304 44.78977169 26.03515625 48.1640625 C26.03718048 49.44318008 26.03920471 50.72229767 26.04129028 52.04017639 C26.03656204 53.80221657 26.03656204 53.80221657 26.03173828 55.59985352 C26.03094269 56.63972916 26.03014709 57.6796048 26.02932739 58.75099182 C25.90234375 61.09765625 25.90234375 61.09765625 24.90234375 62.09765625 C23.30623393 62.1909933 21.70600947 62.21510997 20.10717773 62.21118164 C19.07185913 62.21106079 18.03654053 62.21093994 16.96984863 62.21081543 C15.32575012 62.20314148 15.32575012 62.20314148 13.6484375 62.1953125 C12.64687622 62.19430542 11.64531494 62.19329834 10.61340332 62.19226074 C6.85553856 62.18701054 3.09769006 62.17304942 -0.66015625 62.16015625 C-9.05453125 62.13953125 -17.44890625 62.11890625 -26.09765625 62.09765625 C-26.09765625 41.96765625 -26.09765625 21.83765625 -26.09765625 1.09765625 C-6.56003252 -0.05161573 -6.56003252 -0.05161573 0 0 Z " fill="#232328" transform="translate(706.09765625,215.90234375)"/>
<path d="M0 0 C21.12 0 42.24 0 64 0 C64 31.02 64 62.04 64 94 C63.67 94 63.34 94 63 94 C63 63.31 63 32.62 63 1 C52.44 1 41.88 1 31 1 C31 10.9 31 20.8 31 31 C1.3 31 -28.4 31 -59 31 C-59 30.67 -59 30.34 -59 30 C-39.53 30 -20.06 30 0 30 C0 20.1 0 10.2 0 0 Z " fill="#525257" transform="translate(996,278)"/>
<path d="M0 0 C0.66 0 1.32 0 2 0 C2.32871094 0.7734375 2.65742188 1.546875 2.99609375 2.34375 C7.1175936 11.36860603 12.03203679 18.3396274 21.5625 22 C22.696875 22.33 23.83125 22.66 25 23 C25 23.66 25 24.32 25 25 C24.21496094 25.3403125 23.42992188 25.680625 22.62109375 26.03125 C11.73574938 31.05320028 6.17844446 36.78827324 2 48 C1.34 48 0.68 48 0 48 C-0.3403125 47.21496094 -0.680625 46.42992187 -1.03125 45.62109375 C-6.05320028 34.73574938 -11.78827324 29.17844446 -23 25 C-23 24.34 -23 23.68 -23 23 C-22.21496094 22.6596875 -21.42992188 22.319375 -20.62109375 21.96875 C-9.73574938 16.94679972 -4.17844446 11.21172676 0 0 Z " fill="#8D8F91" transform="translate(2350,352)"/>
<path d="M0 0 C2.17593474 2.17593474 2.89842157 3.88695555 4.125 6.6875 C6.4565417 11.51862243 9.23707359 14.43208184 13.42578125 17.72265625 C14.20501953 18.35494141 14.20501953 18.35494141 15 19 C15 19.33 15 19.66 15 20 C10.05 20 5.1 20 0 20 C0 13.4 0 6.8 0 0 Z " fill="#B6BABF" transform="translate(2351,352)"/>
</svg>
